<svg viewBox="0 0 500 1100" xmlns="http://www.w3.org/2000/svg" style="max-width: 100%; height: auto; display: block;">
  <text x="250" y="20" style="font-size: 16px; font-weight: 500; text-anchor: middle; fill: #1f2937;">218 Madison — Panel Assembly Status</text>
  <text x="250" y="35" style="font-size: 12px; text-anchor: middle; fill: #6b7280;">Green = Cut, White = Pending, Red Border = Delivered</text>
  
  <rect x="40" y="40" width="12" height="28.8" fill="#22c55e" stroke="#16a34a" stroke-width="1"/>
  <text x="60" y="54" style="font-size: 11px; fill: #1f2937;">Assembled (Cut)</text>
  
  <rect x="240" y="40" width="12" height="28.8" fill="#ffffff" stroke="#d1d5db" stroke-width="1"/>
  <text x="260" y="54" style="font-size: 11px; fill: #1f2937;">Pending</text>

  <rect x="40" y="72" width="12" height="28.8" fill="none" stroke="#dc2626" stroke-width="3"/>
  <text x="60" y="86" style="font-size: 11px; fill: #1f2937;">Delivered</text>

  <text x="110" y="75" style="font-size: 11px; fill: #9ca3af; text-anchor: middle;">1</text>
<text x="170" y="75" style="font-size: 11px; fill: #9ca3af; text-anchor: middle;">2</text>
<text x="230" y="75" style="font-size: 11px; fill: #9ca3af; text-anchor: middle;">3</text>
<text x="290" y="75" style="font-size: 11px; fill: #9ca3af; text-anchor: middle;">4</text>
<text x="350" y="75" style="font-size: 11px; fill: #9ca3af; text-anchor: middle;">5</text>
<text x="410" y="75" style="font-size: 11px; fill: #9ca3af; text-anchor: middle;">6</text>
<text x="470" y="75" style="font-size: 11px; fill: #9ca3af; text-anchor: middle;">7</text>

  <rect x="110" y="92" width="20" height="48" fill="#ffffff" stroke="#d1d5db" stroke-width="1"/><text x="120" y="116" style="font-size: 10px; font-weight: 500; text-anchor: middle; dominant-baseline: middle; fill: #000;">12-1*</text>
<rect x="170" y="92" width="20" height="48" fill="#22c55e" stroke="#16a34a" stroke-width="1"/><rect x="168" y="90" width="24" height="52" fill="none" stroke="#dc2626" stroke-width="3" rx="2"/><text x="180" y="116" style="font-size: 10px; font-weight: 500; text-anchor: middle; dominant-baseline: middle; fill: #000;">12-2</text>
<rect x="230" y="92" width="20" height="48" fill="#ffffff" stroke="#d1d5db" stroke-width="1"/><text x="240" y="116" style="font-size: 10px; font-weight: 500; text-anchor: middle; dominant-baseline: middle; fill: #000;">12-3</text>
<rect x="290" y="92" width="20" height="48" fill="#ffffff" stroke="#d1d5db" stroke-width="1"/><text x="300" y="116" style="font-size: 10px; font-weight: 500; text-anchor: middle; dominant-baseline: middle; fill: #000;">12-4</text>
<rect x="350" y="92" width="20" height="48" fill="#ffffff" stroke="#d1d5db" stroke-width="1"/><text x="360" y="116" style="font-size: 10px; font-weight: 500; text-anchor: middle; dominant-baseline: middle; fill: #000;">12-5</text>
<rect x="410" y="92" width="20" height="48" fill="#ffffff" stroke="#d1d5db" stroke-width="1"/><text x="420" y="116" style="font-size: 10px; font-weight: 500; text-anchor: middle; dominant-baseline: middle; fill: #000;">12-6</text>
<rect x="470" y="92" width="20" height="48" fill="#ffffff" stroke="#d1d5db" stroke-width="1"/><text x="480" y="116" style="font-size: 10px; font-weight: 500; text-anchor: middle; dominant-baseline: middle; fill: #000;">12-7</text>
<rect x="110" y="150" width="20" height="48" fill="#ffffff" stroke="#d1d5db" stroke-width="1"/><text x="120" y="174" style="font-size: 10px; font-weight: 500; text-anchor: middle; dominant-baseline: middle; fill: #000;">11-1*</text>
<rect x="170" y="150" width="20" height="48" fill="#22c55e" stroke="#16a34a" stroke-width="1"/><text x="180" y="174" style="font-size: 10px; font-weight: 500; text-anchor: middle; dominant-baseline: middle; fill: #000;">11-2</text>
<rect x="230" y="150" width="20" height="48" fill="#ffffff" stroke="#d1d5db" stroke-width="1"/><text x="240" y="174" style="font-size: 10px; font-weight: 500; text-anchor: middle; dominant-baseline: middle; fill: #000;">11-3</text>
<rect x="290" y="150" width="20" height="48" fill="#ffffff" stroke="#d1d5db" stroke-width="1"/><text x="300" y="174" style="font-size: 10px; font-weight: 500; text-anchor: middle; dominant-baseline: middle; fill: #000;">11-4</text>
<rect x="350" y="150" width="20" height="48" fill="#ffffff" stroke="#d1d5db" stroke-width="1"/><text x="360" y="174" style="font-size: 10px; font-weight: 500; text-anchor: middle; dominant-baseline: middle; fill: #000;">11-5</text>
<rect x="410" y="150" width="20" height="48" fill="#ffffff" stroke="#d1d5db" stroke-width="1"/><text x="420" y="174" style="font-size: 10px; font-weight: 500; text-anchor: middle; dominant-baseline: middle; fill: #000;">11-6</text>
<rect x="470" y="150" width="20" height="48" fill="#ffffff" stroke="#d1d5db" stroke-width="1"/><text x="480" y="174" style="font-size: 10px; font-weight: 500; text-anchor: middle; dominant-baseline: middle; fill: #000;">11-7</text>
<rect x="110" y="208" width="20" height="48" fill="#ffffff" stroke="#d1d5db" stroke-width="1"/><text x="120" y="232" style="font-size: 10px; font-weight: 500; text-anchor: middle; dominant-baseline: middle; fill: #000;">10-1*</text>
<rect x="170" y="208" width="20" height="48" fill="#22c55e" stroke="#16a34a" stroke-width="1"/><text x="180" y="232" style="font-size: 10px; font-weight: 500; text-anchor: middle; dominant-baseline: middle; fill: #000;">10-2</text>
<rect x="230" y="208" width="20" height="48" fill="#22c55e" stroke="#16a34a" stroke-width="1"/><rect x="228" y="206" width="24" height="52" fill="none" stroke="#dc2626" stroke-width="3" rx="2"/><text x="240" y="232" style="font-size: 10px; font-weight: 500; text-anchor: middle; dominant-baseline: middle; fill: #000;">10-3</text>
<rect x="290" y="208" width="20" height="48" fill="#ffffff" stroke="#d1d5db" stroke-width="1"/><text x="300" y="232" style="font-size: 10px; font-weight: 500; text-anchor: middle; dominant-baseline: middle; fill: #000;">10-4</text>
<rect x="350" y="208" width="20" height="48" fill="#ffffff" stroke="#d1d5db" stroke-width="1"/><text x="360" y="232" style="font-size: 10px; font-weight: 500; text-anchor: middle; dominant-baseline: middle; fill: #000;">10-5</text>
<rect x="410" y="208" width="20" height="48" fill="#ffffff" stroke="#d1d5db" stroke-width="1"/><text x="420" y="232" style="font-size: 10px; font-weight: 500; text-anchor: middle; dominant-baseline: middle; fill: #000;">10-6</text>
<rect x="470" y="208" width="20" height="48" fill="#ffffff" stroke="#d1d5db" stroke-width="1"/><text x="480" y="232" style="font-size: 10px; font-weight: 500; text-anchor: middle; dominant-baseline: middle; fill: #000;">10-7</text>
<rect x="110" y="266" width="20" height="48" fill="#ffffff" stroke="#d1d5db" stroke-width="1"/><text x="120" y="290" style="font-size: 10px; font-weight: 500; text-anchor: middle; dominant-baseline: middle; fill: #000;">9-1*</text>
<rect x="170" y="266" width="20" height="48" fill="#ffffff" stroke="#d1d5db" stroke-width="1"/><text x="180" y="290" style="font-size: 10px; font-weight: 500; text-anchor: middle; dominant-baseline: middle; fill: #000;">9-2</text>
<rect x="230" y="266" width="20" height="48" fill="#ffffff" stroke="#d1d5db" stroke-width="1"/><text x="240" y="290" style="font-size: 10px; font-weight: 500; text-anchor: middle; dominant-baseline: middle; fill: #000;">9-3</text>
<rect x="290" y="266" width="20" height="48" fill="#ffffff" stroke="#d1d5db" stroke-width="1"/><text x="300" y="290" style="font-size: 10px; font-weight: 500; text-anchor: middle; dominant-baseline: middle; fill: #000;">9-4</text>
<rect x="350" y="266" width="20" height="48" fill="#ffffff" stroke="#d1d5db" stroke-width="1"/><text x="360" y="290" style="font-size: 10px; font-weight: 500; text-anchor: middle; dominant-baseline: middle; fill: #000;">9-5</text>
<rect x="410" y="266" width="20" height="48" fill="#ffffff" stroke="#d1d5db" stroke-width="1"/><text x="420" y="290" style="font-size: 10px; font-weight: 500; text-anchor: middle; dominant-baseline: middle; fill: #000;">9-6</text>
<rect x="470" y="266" width="20" height="48" fill="#ffffff" stroke="#d1d5db" stroke-width="1"/><text x="480" y="290" style="font-size: 10px; font-weight: 500; text-anchor: middle; dominant-baseline: middle; fill: #000;">9-7</text>
<rect x="110" y="324" width="20" height="48" fill="#ffffff" stroke="#d1d5db" stroke-width="1"/><text x="120" y="348" style="font-size: 10px; font-weight: 500; text-anchor: middle; dominant-baseline: middle; fill: #000;">8-1*</text>
<rect x="170" y="324" width="20" height="48" fill="#22c55e" stroke="#16a34a" stroke-width="1"/><text x="180" y="348" style="font-size: 10px; font-weight: 500; text-anchor: middle; dominant-baseline: middle; fill: #000;">8-2</text>
<rect x="230" y="324" width="20" height="48" fill="#22c55e" stroke="#16a34a" stroke-width="1"/><text x="240" y="348" style="font-size: 10px; font-weight: 500; text-anchor: middle; dominant-baseline: middle; fill: #000;">8-3</text>
<rect x="290" y="324" width="20" height="48" fill="#22c55e" stroke="#16a34a" stroke-width="1"/><text x="300" y="348" style="font-size: 10px; font-weight: 500; text-anchor: middle; dominant-baseline: middle; fill: #000;">8-4</text>
<rect x="350" y="324" width="20" height="48" fill="#22c55e" stroke="#16a34a" stroke-width="1"/><text x="360" y="348" style="font-size: 10px; font-weight: 500; text-anchor: middle; dominant-baseline: middle; fill: #000;">8-5</text>
<rect x="410" y="324" width="20" height="48" fill="#22c55e" stroke="#16a34a" stroke-width="1"/><text x="420" y="348" style="font-size: 10px; font-weight: 500; text-anchor: middle; dominant-baseline: middle; fill: #000;">8-6</text>
<rect x="470" y="324" width="20" height="48" fill="#22c55e" stroke="#16a34a" stroke-width="1"/><text x="480" y="348" style="font-size: 10px; font-weight: 500; text-anchor: middle; dominant-baseline: middle; fill: #000;">8-7</text>
<rect x="110" y="382" width="20" height="48" fill="#ffffff" stroke="#d1d5db" stroke-width="1"/><text x="120" y="406" style="font-size: 10px; font-weight: 500; text-anchor: middle; dominant-baseline: middle; fill: #000;">7-1*</text>
<rect x="170" y="382" width="20" height="48" fill="#22c55e" stroke="#16a34a" stroke-width="1"/><text x="180" y="406" style="font-size: 10px; font-weight: 500; text-anchor: middle; dominant-baseline: middle; fill: #000;">7-2</text>
<rect x="230" y="382" width="20" height="48" fill="#22c55e" stroke="#16a34a" stroke-width="1"/><text x="240" y="406" style="font-size: 10px; font-weight: 500; text-anchor: middle; dominant-baseline: middle; fill: #000;">7-3</text>
<rect x="290" y="382" width="20" height="48" fill="#22c55e" stroke="#16a34a" stroke-width="1"/><text x="300" y="406" style="font-size: 10px; font-weight: 500; text-anchor: middle; dominant-baseline: middle; fill: #000;">7-4</text>
<rect x="350" y="382" width="20" height="48" fill="#22c55e" stroke="#16a34a" stroke-width="1"/><rect x="348" y="380" width="24" height="52" fill="none" stroke="#dc2626" stroke-width="3" rx="2"/><text x="360" y="406" style="font-size: 10px; font-weight: 500; text-anchor: middle; dominant-baseline: middle; fill: #000;">7-5</text>
<rect x="410" y="382" width="20" height="48" fill="#22c55e" stroke="#16a34a" stroke-width="1"/><rect x="408" y="380" width="24" height="52" fill="none" stroke="#dc2626" stroke-width="3" rx="2"/><text x="420" y="406" style="font-size: 10px; font-weight: 500; text-anchor: middle; dominant-baseline: middle; fill: #000;">7-6</text>
<rect x="470" y="382" width="20" height="48" fill="#22c55e" stroke="#16a34a" stroke-width="1"/><text x="480" y="406" style="font-size: 10px; font-weight: 500; text-anchor: middle; dominant-baseline: middle; fill: #000;">7-7</text>
<rect x="110" y="440" width="20" height="48" fill="#ffffff" stroke="#d1d5db" stroke-width="1"/><text x="120" y="464" style="font-size: 10px; font-weight: 500; text-anchor: middle; dominant-baseline: middle; fill: #000;">6-1*</text>
<rect x="170" y="440" width="20" height="48" fill="#22c55e" stroke="#16a34a" stroke-width="1"/><rect x="168" y="438" width="24" height="52" fill="none" stroke="#dc2626" stroke-width="3" rx="2"/><text x="180" y="464" style="font-size: 10px; font-weight: 500; text-anchor: middle; dominant-baseline: middle; fill: #000;">6-2</text>
<rect x="230" y="440" width="20" height="48" fill="#ffffff" stroke="#d1d5db" stroke-width="1"/><text x="240" y="464" style="font-size: 10px; font-weight: 500; text-anchor: middle; dominant-baseline: middle; fill: #000;">6-3</text>
<rect x="290" y="440" width="20" height="48" fill="#ffffff" stroke="#d1d5db" stroke-width="1"/><text x="300" y="464" style="font-size: 10px; font-weight: 500; text-anchor: middle; dominant-baseline: middle; fill: #000;">6-4</text>
<rect x="350" y="440" width="20" height="48" fill="#ffffff" stroke="#d1d5db" stroke-width="1"/><text x="360" y="464" style="font-size: 10px; font-weight: 500; text-anchor: middle; dominant-baseline: middle; fill: #000;">6-5</text>
<rect x="410" y="440" width="20" height="48" fill="#ffffff" stroke="#d1d5db" stroke-width="1"/><text x="420" y="464" style="font-size: 10px; font-weight: 500; text-anchor: middle; dominant-baseline: middle; fill: #000;">6-6</text>
<rect x="470" y="440" width="20" height="48" fill="#ffffff" stroke="#d1d5db" stroke-width="1"/><text x="480" y="464" style="font-size: 10px; font-weight: 500; text-anchor: middle; dominant-baseline: middle; fill: #000;">6-7</text>
<rect x="110" y="498" width="20" height="48" fill="#ffffff" stroke="#d1d5db" stroke-width="1"/><text x="120" y="522" style="font-size: 10px; font-weight: 500; text-anchor: middle; dominant-baseline: middle; fill: #000;">5-1*</text>
<rect x="170" y="498" width="20" height="48" fill="#22c55e" stroke="#16a34a" stroke-width="1"/><rect x="168" y="496" width="24" height="52" fill="none" stroke="#dc2626" stroke-width="3" rx="2"/><text x="180" y="522" style="font-size: 10px; font-weight: 500; text-anchor: middle; dominant-baseline: middle; fill: #000;">5-2</text>
<rect x="230" y="498" width="20" height="48" fill="#22c55e" stroke="#16a34a" stroke-width="1"/><text x="240" y="522" style="font-size: 10px; font-weight: 500; text-anchor: middle; dominant-baseline: middle; fill: #000;">5-3</text>
<rect x="290" y="498" width="20" height="48" fill="#22c55e" stroke="#16a34a" stroke-width="1"/><rect x="288" y="496" width="24" height="52" fill="none" stroke="#dc2626" stroke-width="3" rx="2"/><text x="300" y="522" style="font-size: 10px; font-weight: 500; text-anchor: middle; dominant-baseline: middle; fill: #000;">5-4</text>
<rect x="350" y="498" width="20" height="48" fill="#22c55e" stroke="#16a34a" stroke-width="1"/><rect x="348" y="496" width="24" height="52" fill="none" stroke="#dc2626" stroke-width="3" rx="2"/><text x="360" y="522" style="font-size: 10px; font-weight: 500; text-anchor: middle; dominant-baseline: middle; fill: #000;">5-5</text>
<rect x="410" y="498" width="20" height="48" fill="#22c55e" stroke="#16a34a" stroke-width="1"/><rect x="408" y="496" width="24" height="52" fill="none" stroke="#dc2626" stroke-width="3" rx="2"/><text x="420" y="522" style="font-size: 10px; font-weight: 500; text-anchor: middle; dominant-baseline: middle; fill: #000;">5-6</text>
<rect x="470" y="498" width="20" height="48" fill="#22c55e" stroke="#16a34a" stroke-width="1"/><text x="480" y="522" style="font-size: 10px; font-weight: 500; text-anchor: middle; dominant-baseline: middle; fill: #000;">5-7</text>
<rect x="110" y="556" width="20" height="48" fill="#ffffff" stroke="#d1d5db" stroke-width="1"/><text x="120" y="580" style="font-size: 10px; font-weight: 500; text-anchor: middle; dominant-baseline: middle; fill: #000;">4-1*</text>
<rect x="170" y="556" width="20" height="48" fill="#22c55e" stroke="#16a34a" stroke-width="1"/><rect x="168" y="554" width="24" height="52" fill="none" stroke="#dc2626" stroke-width="3" rx="2"/><text x="180" y="580" style="font-size: 10px; font-weight: 500; text-anchor: middle; dominant-baseline: middle; fill: #000;">4-2</text>
<rect x="230" y="556" width="20" height="48" fill="#22c55e" stroke="#16a34a" stroke-width="1"/><rect x="228" y="554" width="24" height="52" fill="none" stroke="#dc2626" stroke-width="3" rx="2"/><text x="240" y="580" style="font-size: 10px; font-weight: 500; text-anchor: middle; dominant-baseline: middle; fill: #000;">4-3</text>
<rect x="290" y="556" width="20" height="48" fill="#22c55e" stroke="#16a34a" stroke-width="1"/><rect x="288" y="554" width="24" height="52" fill="none" stroke="#dc2626" stroke-width="3" rx="2"/><text x="300" y="580" style="font-size: 10px; font-weight: 500; text-anchor: middle; dominant-baseline: middle; fill: #000;">4-4</text>
<rect x="350" y="556" width="20" height="48" fill="#22c55e" stroke="#16a34a" stroke-width="1"/><rect x="348" y="554" width="24" height="52" fill="none" stroke="#dc2626" stroke-width="3" rx="2"/><text x="360" y="580" style="font-size: 10px; font-weight: 500; text-anchor: middle; dominant-baseline: middle; fill: #000;">4-5</text>
<rect x="410" y="556" width="20" height="48" fill="#22c55e" stroke="#16a34a" stroke-width="1"/><rect x="408" y="554" width="24" height="52" fill="none" stroke="#dc2626" stroke-width="3" rx="2"/><text x="420" y="580" style="font-size: 10px; font-weight: 500; text-anchor: middle; dominant-baseline: middle; fill: #000;">4-6</text>
<rect x="470" y="556" width="20" height="48" fill="#22c55e" stroke="#16a34a" stroke-width="1"/><text x="480" y="580" style="font-size: 10px; font-weight: 500; text-anchor: middle; dominant-baseline: middle; fill: #000;">4-7</text>
<rect x="110" y="614" width="20" height="48" fill="#ffffff" stroke="#d1d5db" stroke-width="1"/><text x="120" y="638" style="font-size: 10px; font-weight: 500; text-anchor: middle; dominant-baseline: middle; fill: #000;">3-1*</text>
<rect x="170" y="614" width="20" height="48" fill="#22c55e" stroke="#16a34a" stroke-width="1"/><rect x="168" y="612" width="24" height="52" fill="none" stroke="#dc2626" stroke-width="3" rx="2"/><text x="180" y="638" style="font-size: 10px; font-weight: 500; text-anchor: middle; dominant-baseline: middle; fill: #000;">3-2</text>
<rect x="230" y="614" width="20" height="48" fill="#22c55e" stroke="#16a34a" stroke-width="1"/><rect x="228" y="612" width="24" height="52" fill="none" stroke="#dc2626" stroke-width="3" rx="2"/><text x="240" y="638" style="font-size: 10px; font-weight: 500; text-anchor: middle; dominant-baseline: middle; fill: #000;">3-3</text>
<rect x="290" y="614" width="20" height="48" fill="#22c55e" stroke="#16a34a" stroke-width="1"/><rect x="288" y="612" width="24" height="52" fill="none" stroke="#dc2626" stroke-width="3" rx="2"/><text x="300" y="638" style="font-size: 10px; font-weight: 500; text-anchor: middle; dominant-baseline: middle; fill: #000;">3-4</text>
<rect x="350" y="614" width="20" height="48" fill="#ffffff" stroke="#d1d5db" stroke-width="1"/><rect x="348" y="612" width="24" height="52" fill="none" stroke="#dc2626" stroke-width="3" rx="2"/><text x="360" y="638" style="font-size: 10px; font-weight: 500; text-anchor: middle; dominant-baseline: middle; fill: #000;">3-5</text>
<rect x="410" y="614" width="20" height="48" fill="#ffffff" stroke="#d1d5db" stroke-width="1"/><text x="420" y="638" style="font-size: 10px; font-weight: 500; text-anchor: middle; dominant-baseline: middle; fill: #000;">3-6</text>
<rect x="470" y="614" width="20" height="48" fill="#ffffff" stroke="#d1d5db" stroke-width="1"/><rect x="468" y="612" width="24" height="52" fill="none" stroke="#dc2626" stroke-width="3" rx="2"/><text x="480" y="638" style="font-size: 10px; font-weight: 500; text-anchor: middle; dominant-baseline: middle; fill: #000;">3-7</text>
<rect x="110" y="672" width="20" height="48" fill="#ffffff" stroke="#d1d5db" stroke-width="1"/><text x="120" y="696" style="font-size: 10px; font-weight: 500; text-anchor: middle; dominant-baseline: middle; fill: #000;">2-1*</text>
<rect x="170" y="672" width="20" height="48" fill="#22c55e" stroke="#16a34a" stroke-width="1"/><rect x="168" y="670" width="24" height="52" fill="none" stroke="#dc2626" stroke-width="3" rx="2"/><text x="180" y="696" style="font-size: 10px; font-weight: 500; text-anchor: middle; dominant-baseline: middle; fill: #000;">2-2</text>
<rect x="230" y="672" width="20" height="48" fill="#22c55e" stroke="#16a34a" stroke-width="1"/><rect x="228" y="670" width="24" height="52" fill="none" stroke="#dc2626" stroke-width="3" rx="2"/><text x="240" y="696" style="font-size: 10px; font-weight: 500; text-anchor: middle; dominant-baseline: middle; fill: #000;">2-3</text>
<rect x="290" y="672" width="20" height="48" fill="#22c55e" stroke="#16a34a" stroke-width="1"/><rect x="288" y="670" width="24" height="52" fill="none" stroke="#dc2626" stroke-width="3" rx="2"/><text x="300" y="696" style="font-size: 10px; font-weight: 500; text-anchor: middle; dominant-baseline: middle; fill: #000;">2-4</text>
<rect x="350" y="672" width="20" height="48" fill="#22c55e" stroke="#16a34a" stroke-width="1"/><rect x="348" y="670" width="24" height="52" fill="none" stroke="#dc2626" stroke-width="3" rx="2"/><text x="360" y="696" style="font-size: 10px; font-weight: 500; text-anchor: middle; dominant-baseline: middle; fill: #000;">2-5</text>
<rect x="410" y="672" width="20" height="48" fill="#22c55e" stroke="#16a34a" stroke-width="1"/><rect x="408" y="670" width="24" height="52" fill="none" stroke="#dc2626" stroke-width="3" rx="2"/><text x="420" y="696" style="font-size: 10px; font-weight: 500; text-anchor: middle; dominant-baseline: middle; fill: #000;">2-6</text>
<rect x="470" y="672" width="20" height="48" fill="#22c55e" stroke="#16a34a" stroke-width="1"/><rect x="468" y="670" width="24" height="52" fill="none" stroke="#dc2626" stroke-width="3" rx="2"/><text x="480" y="696" style="font-size: 10px; font-weight: 500; text-anchor: middle; dominant-baseline: middle; fill: #000;">2-7</text>
<rect x="110" y="730" width="20" height="48" fill="#ffffff" stroke="#d1d5db" stroke-width="1"/><text x="120" y="754" style="font-size: 10px; font-weight: 500; text-anchor: middle; dominant-baseline: middle; fill: #000;">1-1*</text>
<rect x="170" y="730" width="20" height="48" fill="#22c55e" stroke="#16a34a" stroke-width="1"/><rect x="168" y="728" width="24" height="52" fill="none" stroke="#dc2626" stroke-width="3" rx="2"/><text x="180" y="754" style="font-size: 10px; font-weight: 500; text-anchor: middle; dominant-baseline: middle; fill: #000;">1-2</text>
<rect x="230" y="730" width="20" height="48" fill="#22c55e" stroke="#16a34a" stroke-width="1"/><rect x="228" y="728" width="24" height="52" fill="none" stroke="#dc2626" stroke-width="3" rx="2"/><text x="240" y="754" style="font-size: 10px; font-weight: 500; text-anchor: middle; dominant-baseline: middle; fill: #000;">1-3</text>
<rect x="290" y="730" width="20" height="48" fill="#22c55e" stroke="#16a34a" stroke-width="1"/><rect x="288" y="728" width="24" height="52" fill="none" stroke="#dc2626" stroke-width="3" rx="2"/><text x="300" y="754" style="font-size: 10px; font-weight: 500; text-anchor: middle; dominant-baseline: middle; fill: #000;">1-4</text>
<rect x="350" y="730" width="20" height="48" fill="#22c55e" stroke="#16a34a" stroke-width="1"/><rect x="348" y="728" width="24" height="52" fill="none" stroke="#dc2626" stroke-width="3" rx="2"/><text x="360" y="754" style="font-size: 10px; font-weight: 500; text-anchor: middle; dominant-baseline: middle; fill: #000;">1-5</text>
<rect x="410" y="730" width="20" height="48" fill="#22c55e" stroke="#16a34a" stroke-width="1"/><rect x="408" y="728" width="24" height="52" fill="none" stroke="#dc2626" stroke-width="3" rx="2"/><text x="420" y="754" style="font-size: 10px; font-weight: 500; text-anchor: middle; dominant-baseline: middle; fill: #000;">1-6</text>
<rect x="470" y="730" width="20" height="48" fill="#22c55e" stroke="#16a34a" stroke-width="1"/><text x="480" y="754" style="font-size: 10px; font-weight: 500; text-anchor: middle; dominant-baseline: middle; fill: #000;">1-7</text>

  <text x="30" y="754" style="font-size: 11px; fill: #9ca3af; text-anchor: end; dominant-baseline: middle;">1</text>
<text x="30" y="696" style="font-size: 11px; fill: #9ca3af; text-anchor: end; dominant-baseline: middle;">2</text>
<text x="30" y="638" style="font-size: 11px; fill: #9ca3af; text-anchor: end; dominant-baseline: middle;">3</text>
<text x="30" y="580" style="font-size: 11px; fill: #9ca3af; text-anchor: end; dominant-baseline: middle;">4</text>
<text x="30" y="522" style="font-size: 11px; fill: #9ca3af; text-anchor: end; dominant-baseline: middle;">5</text>
<text x="30" y="464" style="font-size: 11px; fill: #9ca3af; text-anchor: end; dominant-baseline: middle;">6</text>
<text x="30" y="406" style="font-size: 11px; fill: #9ca3af; text-anchor: end; dominant-baseline: middle;">7</text>
<text x="30" y="348" style="font-size: 11px; fill: #9ca3af; text-anchor: end; dominant-baseline: middle;">8</text>
<text x="30" y="290" style="font-size: 11px; fill: #9ca3af; text-anchor: end; dominant-baseline: middle;">9</text>
<text x="30" y="232" style="font-size: 11px; fill: #9ca3af; text-anchor: end; dominant-baseline: middle;">10</text>
<text x="30" y="174" style="font-size: 11px; fill: #9ca3af; text-anchor: end; dominant-baseline: middle;">11</text>
<text x="30" y="116" style="font-size: 11px; fill: #9ca3af; text-anchor: end; dominant-baseline: middle;">12</text>

  <rect x="40" y="790" width="400" height="290" fill="#f5f5f5" stroke="0.5px solid #e5e7eb" stroke-width="0.5" rx="8"/>
  <text x="60" y="815" style="font-size: 13px; font-weight: 500; fill: #1f2937;">Assembly Progress Summary</text>
  <text x="60" y="840" style="font-size: 13px; fill: #4b5563;"><tspan font-weight="500" fill="#22c55e">44 panels assembled</tspan> / 72 logged</text>
  <text x="60" y="860" style="font-size: 13px; fill: #4b5563;">Delivered: <tspan font-weight="500" fill="#dc2626">30 panels</tspan></text>
 //  <text x="60" y="880" style="font-size: 13px; fill: #4b5563;">Completion rate: <tspan font-weight="500">61%</tspan></text>
  <text x="60" y="905" style="font-size: 11px; fill: #9ca3af;">Updated: 9/15/2026, 2:15:19 PM</text>
</svg>